<svg xmlns="http://www.w3.org/2000/svg" viewBox="0 0 300 220" width="300" height="220" role="img"><defs><linearGradient id="g" x1="0" y1="0" x2="0" y2="1"><stop offset="0" stop-color="#f2ecff"/><stop offset="1" stop-color="#fff9f0"/></linearGradient></defs><rect width="300" height="220" fill="url(#g)"/><circle cx="258" cy="40" r="66" fill="#fff" opacity=".38"/><circle cx="30" cy="176" r="57" fill="#fff" opacity=".28"/><rect x="66" y="66" width="168" height="110" rx="10" fill="#fff"/><rect x="148" y="66" width="4" height="110" fill="#dfe3ff"/><rect x="80" y="86" width="56" height="7" rx="3.5" fill="#dfe3ff"/><rect x="162" y="86" width="56" height="7" rx="3.5" fill="#ffb020" opacity=".7"/><rect x="80" y="106" width="50" height="7" rx="3.5" fill="#dfe3ff"/><rect x="162" y="106" width="48" height="7" rx="3.5" fill="#ffb020" opacity=".7"/><rect x="80" y="126" width="44" height="7" rx="3.5" fill="#dfe3ff"/><rect x="162" y="126" width="40" height="7" rx="3.5" fill="#ffb020" opacity=".7"/><rect x="80" y="146" width="38" height="7" rx="3.5" fill="#dfe3ff"/><rect x="162" y="146" width="32" height="7" rx="3.5" fill="#ffb020" opacity=".7"/><polygon points="248.0,33.0 251.4,41.3 260.4,42.0 253.6,47.8 255.6,56.5 248.0,51.9 240.4,56.5 242.4,47.8 235.6,42.0 244.6,41.3" fill="#8b5cf6" opacity=".8" transform="rotate(0,248,46)"/><polygon points="50.0,168.0 52.6,174.4 59.5,174.9 54.3,179.4 55.9,186.1 50.0,182.5 44.1,186.1 45.7,179.4 40.5,174.9 47.4,174.4" fill="#2fbf9b" opacity=".8" transform="rotate(0,50,178)"/></svg>