<svg xmlns="http://www.w3.org/2000/svg" viewBox="0 0 300 220" width="300" height="220" role="img"><defs><linearGradient id="g" x1="0" y1="0" x2="0" y2="1"><stop offset="0" stop-color="#eef1ff"/><stop offset="1" stop-color="#e4f8f2"/></linearGradient></defs><rect width="300" height="220" fill="url(#g)"/><circle cx="258" cy="40" r="66" fill="#fff" opacity=".38"/><circle cx="30" cy="176" r="57" fill="#fff" opacity=".28"/><rect x="58" y="58" width="184" height="106" rx="12" fill="#fff"/><text x="150" y="118" text-anchor="middle" font-family="Helvetica,Arial" font-size="30" font-weight="900" fill="#3a49aa">24 + 18 = ?</text><polygon points="258.0,30.0 261.2,37.6 269.4,38.3 263.1,43.7 265.1,51.7 258.0,47.4 250.9,51.7 252.9,43.7 246.6,38.3 254.8,37.6" fill="#ff6b8a" opacity=".8" transform="rotate(0,258,42)"/><polygon points="44.0,165.0 46.9,172.0 54.5,172.6 48.7,177.5 50.5,184.9 44.0,180.9 37.5,184.9 39.3,177.5 33.5,172.6 41.1,172.0" fill="#ffb020" opacity=".8" transform="rotate(0,44,176)"/><text x="150" y="150" text-anchor="middle" font-family="Helvetica,Arial" font-size="16" font-weight="700" fill="#2a2740">算算看！</text></svg>