<svg xmlns="http://www.w3.org/2000/svg" viewBox="0 0 460 380" width="460" height="380" role="img"><defs><linearGradient id="g" x1="0" y1="0" x2="0" y2="1"><stop offset="0" stop-color="#eef1ff"/><stop offset="1" stop-color="#fff6e8"/></linearGradient></defs><rect width="460" height="380" fill="url(#g)"/><circle cx="396" cy="68" r="114" fill="#fff" opacity=".38"/><circle cx="46" cy="304" r="99" fill="#fff" opacity=".28"/><polygon points="392.0,29.0 396.0,38.5 406.3,39.4 398.4,46.1 400.8,56.1 392.0,50.8 383.2,56.1 385.6,46.1 377.7,39.4 388.0,38.5" fill="#ffb020" opacity=".75" transform="rotate(0,392,44)"/><polygon points="46.0,48.0 48.6,54.4 55.5,54.9 50.3,59.4 51.9,66.1 46.0,62.5 40.1,66.1 41.7,59.4 36.5,54.9 43.4,54.4" fill="#8b5cf6" opacity=".55" transform="rotate(0,46,58)"/><polygon points="420.0,291.0 422.4,296.7 428.6,297.2 423.9,301.3 425.3,307.3 420.0,304.1 414.7,307.3 416.1,301.3 411.4,297.2 417.6,296.7" fill="#2fbf9b" opacity=".6" transform="rotate(0,420,300)"/><rect x="0" y="300" width="460" height="80" fill="#ffffff" opacity=".6"/><rect x="108" y="42" width="258" height="126" rx="12" fill="#7a4b2a" opacity=".85"/><rect x="112" y="46" width="250" height="118" rx="8" fill="#2f6b57"/><text x="128" y="76" font-family="PingFang TC,Heiti TC,Microsoft JhengHei,Noto Sans TC,sans-serif" font-size="20" font-weight="700" fill="#eafff6">今天上什麼</text><rect x="128" y="92" width="155" height="7" rx="3.5" fill="#eafff6" opacity=".55"/><rect x="128" y="108" width="195" height="7" rx="3.5" fill="#eafff6" opacity=".55"/><rect x="128" y="124" width="112" height="7" rx="3.5" fill="#eafff6" opacity=".55"/><rect x="292" y="168" width="120" height="44" rx="18" fill="#ffffff"/><path d="M310,212 l-4,16 l18,-16z" fill="#ffffff"/><text x="352.0" y="199" text-anchor="middle" font-family="PingFang TC,Heiti TC,Microsoft JhengHei,Noto Sans TC,sans-serif" font-size="24" font-weight="800" fill="#ff6b8a">ABC</text><g transform="translate(86,300) scale(1.25)"><path d="M-24,0 L-17,-58 h34 L24,0 z" fill="#4c5fd5"/><rect x="-30" y="-58" width="10" height="32" rx="5" fill="#4c5fd5"/><rect x="20" y="-58" width="10" height="32" rx="5" fill="#4c5fd5"/><circle cx="-25" cy="-24" r="5.5" fill="#f7c9a3"/><circle cx="25" cy="-24" r="5.5" fill="#f7c9a3"/><circle cx="0" cy="-74" r="16" fill="#f7c9a3"/><path d="M17,-80 q9,10 6,26 q-7,-9 -12,-10z" fill="#7a4b2a"/><path d="M-16,-80 a16,16 0 0 1 32,0 q-8,-9 -16,-7 q-9,-2 -16,7z" fill="#7a4b2a"/><circle cx="-5" cy="-75" r="2.4" fill="#2a2740"/><circle cx="5" cy="-75" r="2.4" fill="#2a2740"/><path d="M-5,-68 q5,5.5 10,0" stroke="#2a2740" stroke-width="2" fill="none" stroke-linecap="round"/><circle cx="-10" cy="-69" r="3.2" fill="#ff6b8a" opacity=".4"/><circle cx="10" cy="-69" r="3.2" fill="#ff6b8a" opacity=".4"/></g><rect x="157.0" y="274" width="78" height="9" rx="4.5" fill="#ffb020"/><rect x="163.0" y="283" width="7" height="26" rx="3.5" fill="#7a4b2a"/><rect x="222.0" y="283" width="7" height="26" rx="3.5" fill="#7a4b2a"/><rect x="277.0" y="274" width="78" height="9" rx="4.5" fill="#2fbf9b"/><rect x="283.0" y="283" width="7" height="26" rx="3.5" fill="#7a4b2a"/><rect x="342.0" y="283" width="7" height="26" rx="3.5" fill="#7a4b2a"/><g transform="translate(196,274) scale(0.92)"><rect x="-13" y="-25" width="10" height="25" rx="5" fill="#3f4a7a"/><rect x="3" y="-25" width="10" height="25" rx="5" fill="#3f4a7a"/><rect x="-19" y="-63" width="38" height="42" rx="15" fill="#ff6b8a"/><rect x="-31" y="-88" width="10" height="30" rx="5" fill="#ff6b8a" transform="rotate(-22,-26,-58)"/><rect x="21" y="-88" width="10" height="30" rx="5" fill="#ff6b8a" transform="rotate(22,26,-58)"/><circle cx="0" cy="-76" r="15.5" fill="#f7c9a3"/><path d="M15,-82 q14,4 12,20 q-8,-8 -14,-8z" fill="#3b3550"/><path d="M-15.5,-80 a15.5,15.5 0 0 1 31,0 q-7,-8 -15.5,-6.5 q-9,-1.5 -15.5,6.5z" fill="#3b3550"/><circle cx="-9.5" cy="-71" r="3.2" fill="#ff6b8a" opacity=".45"/><circle cx="9.5" cy="-71" r="3.2" fill="#ff6b8a" opacity=".45"/><circle cx="-5" cy="-77" r="2.4" fill="#2a2740"/><circle cx="5" cy="-77" r="2.4" fill="#2a2740"/><ellipse cx="0" cy="-69" rx="3.4" ry="4.2" fill="#2a2740"/></g><g transform="translate(316,274) scale(0.92)"><rect x="-13" y="-25" width="10" height="25" rx="5" fill="#3f4a7a"/><rect x="3" y="-25" width="10" height="25" rx="5" fill="#3f4a7a"/><rect x="-19" y="-63" width="38" height="42" rx="15" fill="#8b5cf6"/><rect x="-31" y="-88" width="10" height="30" rx="5" fill="#8b5cf6" transform="rotate(-22,-26,-58)"/><rect x="21" y="-88" width="10" height="30" rx="5" fill="#8b5cf6" transform="rotate(22,26,-58)"/><circle cx="0" cy="-76" r="15.5" fill="#f7c9a3"/><path d="M-15.5,-80 a15.5,15.5 0 0 1 31,0 q-7,-8 -15.5,-6.5 q-9,-1.5 -15.5,6.5z" fill="#3b3550"/><circle cx="-9.5" cy="-71" r="3.2" fill="#ff6b8a" opacity=".45"/><circle cx="9.5" cy="-71" r="3.2" fill="#ff6b8a" opacity=".45"/><circle cx="-5" cy="-77" r="2.3" fill="#2a2740"/><circle cx="5" cy="-77" r="2.3" fill="#2a2740"/><path d="M-5,-70 q5,5.5 10,0" stroke="#2a2740" stroke-width="1.9" fill="none" stroke-linecap="round"/></g><g transform="translate(256,340) scale(1.0)"><rect x="-13" y="-25" width="10" height="25" rx="5" fill="#3f4a7a"/><rect x="3" y="-25" width="10" height="25" rx="5" fill="#3f4a7a"/><rect x="-19" y="-63" width="38" height="42" rx="15" fill="#2fbf9b"/><rect x="-28" y="-60" width="10" height="30" rx="5" fill="#2fbf9b"/><rect x="18" y="-60" width="10" height="30" rx="5" fill="#2fbf9b"/><circle cx="0" cy="-76" r="15.5" fill="#e0a878"/><path d="M-16,-80 q-4,20 0,27 h6 q-4,-14 -2,-27z" fill="#3b3550"/><path d="M16,-80 q4,20 0,27 h-6 q4,-14 2,-27z" fill="#3b3550"/><path d="M-15.5,-80 a15.5,15.5 0 0 1 31,0 q-7,-8 -15.5,-6.5 q-9,-1.5 -15.5,6.5z" fill="#3b3550"/><circle cx="-9.5" cy="-71" r="3.2" fill="#ff6b8a" opacity=".45"/><circle cx="9.5" cy="-71" r="3.2" fill="#ff6b8a" opacity=".45"/><circle cx="-5" cy="-77" r="2.3" fill="#2a2740"/><circle cx="5" cy="-77" r="2.3" fill="#2a2740"/><path d="M-5,-70 q5,5.5 10,0" stroke="#2a2740" stroke-width="1.9" fill="none" stroke-linecap="round"/></g><g transform="translate(372,340) scale(1.0)"><rect x="-13" y="-25" width="10" height="25" rx="5" fill="#3f4a7a"/><rect x="3" y="-25" width="10" height="25" rx="5" fill="#3f4a7a"/><rect x="-19" y="-63" width="38" height="42" rx="15" fill="#ffb020"/><rect x="-28" y="-60" width="10" height="30" rx="5" fill="#ffb020"/><rect x="21" y="-86" width="10" height="30" rx="5" fill="#ffb020" transform="rotate(18,26,-58)"/><circle cx="0" cy="-76" r="15.5" fill="#f7c9a3"/><circle cx="0" cy="-95" r="7" fill="#3b3550"/><path d="M-15.5,-80 a15.5,15.5 0 0 1 31,0 q-7,-8 -15.5,-6.5 q-9,-1.5 -15.5,6.5z" fill="#3b3550"/><circle cx="-9.5" cy="-71" r="3.2" fill="#ff6b8a" opacity=".45"/><circle cx="9.5" cy="-71" r="3.2" fill="#ff6b8a" opacity=".45"/><circle cx="-5" cy="-77" r="2.3" fill="#2a2740"/><circle cx="5" cy="-77" r="2.3" fill="#2a2740"/><path d="M-5,-70 q5,5.5 10,0" stroke="#2a2740" stroke-width="1.9" fill="none" stroke-linecap="round"/></g><rect x="150" y="330" width="60" height="10" rx="5" fill="#dfe3ff"/></svg>